<svg width="314" height="321" viewBox="0 0 314 321" fill="none" xmlns="http://www.w3.org/2000/svg">
<rect width="314" height="321" fill=""/>
<circle cx="156.5" cy="160.5" r="116.5" stroke="#BA181B" stroke-width="10"/>
<circle cx="157" cy="160" r="88" stroke="#BA181B" stroke-width="4"/>
<rect x="17" y="125" width="279" height="78" rx="9" fill="#BA181B"/>
<path d="M36.3838 155.8H39.6598L47.4338 167.552V155.8H50.7618V174H48.0318L39.7118 161.52V174H36.3838V155.8ZM62.6446 174.364C60.9286 174.364 59.386 173.974 58.0166 173.194C56.6646 172.397 55.5986 171.287 54.8186 169.866C54.056 168.427 53.6746 166.772 53.6746 164.9C53.6746 163.028 54.056 161.381 54.8186 159.96C55.5986 158.521 56.6646 157.412 58.0166 156.632C59.386 155.835 60.9286 155.436 62.6446 155.436C64.3606 155.436 65.8946 155.835 67.2466 156.632C68.616 157.412 69.682 158.521 70.4446 159.96C71.2246 161.381 71.6146 163.028 71.6146 164.9C71.6146 166.772 71.2246 168.427 70.4446 169.866C69.682 171.287 68.616 172.397 67.2466 173.194C65.8946 173.974 64.3606 174.364 62.6446 174.364ZM62.6446 171.14C64.4126 171.14 65.7646 170.568 66.7006 169.424C67.654 168.28 68.1306 166.772 68.1306 164.9C68.1306 163.028 67.654 161.52 66.7006 160.376C65.7646 159.232 64.4126 158.66 62.6446 158.66C60.8766 158.66 59.516 159.232 58.5626 160.376C57.6266 161.52 57.1586 163.028 57.1586 164.9C57.1586 166.772 57.6266 168.28 58.5626 169.424C59.516 170.568 60.8766 171.14 62.6446 171.14ZM95.4144 174L93.8544 161.806L89.2004 170.178L84.5204 161.832L82.9604 174H79.5024L82.0244 155.8H84.7544L89.2004 164.094L93.6204 155.8H96.3504L98.8724 174H95.4144ZM101.892 155.8H113.54V159.024H105.298V162.898H111.694V166.122H105.298V170.776H113.8V174H101.892V155.8ZM122.509 155.8H129.165C131.106 155.8 132.632 156.268 133.741 157.204C134.868 158.123 135.431 159.492 135.431 161.312C135.431 162.577 135.162 163.617 134.625 164.432C134.088 165.229 133.325 165.871 132.337 166.356L136.445 174H132.727L129.217 167.24H129.087H125.837V174H122.509V155.8ZM128.281 164.458C130.725 164.458 131.947 163.47 131.947 161.494C131.947 160.541 131.67 159.821 131.115 159.336C130.56 158.833 129.659 158.582 128.411 158.582H125.837V164.458H128.281ZM138.784 155.8H150.432V159.024H142.19V162.898H148.586V166.122H142.19V170.776H150.692V174H138.784V155.8ZM153.562 155.8H160.036C164.352 155.8 166.51 157.759 166.51 161.676C166.51 163.704 165.964 165.212 164.872 166.2C163.78 167.188 162.194 167.682 160.114 167.682H156.89V174H153.562V155.8ZM159.724 164.9C160.868 164.9 161.717 164.64 162.272 164.12C162.844 163.6 163.13 162.803 163.13 161.728C163.13 160.653 162.844 159.865 162.272 159.362C161.7 158.842 160.824 158.582 159.646 158.582H156.89V164.9H159.724ZM169.05 155.8H175.706C177.647 155.8 179.173 156.268 180.282 157.204C181.409 158.123 181.972 159.492 181.972 161.312C181.972 162.577 181.703 163.617 181.166 164.432C180.629 165.229 179.866 165.871 178.878 166.356L182.986 174H179.268L175.758 167.24H175.628H172.378V174H169.05V155.8ZM174.822 164.458C177.266 164.458 178.488 163.47 178.488 161.494C178.488 160.541 178.211 159.821 177.656 159.336C177.101 158.833 176.2 158.582 174.952 158.582H172.378V164.458H174.822ZM185.325 155.8H196.973V159.024H188.731V162.898H195.127V166.122H188.731V170.776H197.233V174H185.325V155.8ZM205.381 174.364C204.358 174.364 203.257 174.225 202.079 173.948C200.917 173.671 200.007 173.367 199.349 173.038L199.739 169.502C202.027 170.611 204.037 171.166 205.771 171.166C206.689 171.166 207.409 170.993 207.929 170.646C208.449 170.282 208.709 169.753 208.709 169.06C208.709 168.54 208.561 168.115 208.267 167.786C207.989 167.439 207.582 167.153 207.045 166.928C206.507 166.685 205.649 166.356 204.471 165.94C203.361 165.559 202.443 165.16 201.715 164.744C200.987 164.311 200.406 163.765 199.973 163.106C199.557 162.43 199.349 161.607 199.349 160.636C199.349 159.076 199.921 157.819 201.065 156.866C202.209 155.913 203.847 155.436 205.979 155.436C206.984 155.436 207.981 155.549 208.969 155.774C209.974 155.999 210.893 156.277 211.725 156.606L211.387 160.012C210.312 159.544 209.324 159.197 208.423 158.972C207.539 158.729 206.655 158.608 205.771 158.608C204.783 158.608 204.029 158.773 203.509 159.102C202.989 159.431 202.729 159.908 202.729 160.532C202.729 161.017 202.867 161.416 203.145 161.728C203.422 162.04 203.795 162.3 204.263 162.508C204.748 162.716 205.459 162.967 206.395 163.262C208.492 163.921 210.017 164.683 210.971 165.55C211.941 166.399 212.427 167.569 212.427 169.06C212.427 170.481 211.933 171.721 210.945 172.778C209.957 173.835 208.102 174.364 205.381 174.364ZM215.185 155.8H226.833V159.024H218.591V162.898H224.987V166.122H218.591V170.776H227.093V174H215.185V155.8ZM229.962 155.8H233.238L241.012 167.552V155.8H244.34V174H241.61L233.29 161.52V174H229.962V155.8ZM251.881 159.024H246.733V155.8H260.357V159.024H255.209V174H251.881V159.024ZM270.808 169.684H264.178L262.67 174H259.446L265.92 155.8H269.066L275.54 174H272.316L270.808 169.684ZM269.768 166.772L267.506 160.272L265.218 166.772H269.768Z" fill="white"/>
</svg>
