<svg width="314" height="321" viewBox="0 0 314 321" fill="none" xmlns="http://www.w3.org/2000/svg">
<rect width="314" height="321" fill=""/>
<circle cx="156.5" cy="160.5" r="116.5" stroke="#458330" stroke-width="10"/>
<circle cx="157" cy="160" r="88" stroke="#458330" stroke-width="4"/>
<rect x="17" y="125" width="279" height="78" rx="9" fill="#458330"/>
<path d="M73.4261 174L71.8661 161.806L67.2121 170.178L62.5321 161.832L60.9721 174H57.5141L60.0361 155.8H62.7661L67.2121 164.094L71.6321 155.8H74.3621L76.8841 174H73.4261ZM79.9034 155.8H91.5514V159.024H83.3094V162.898H89.7054V166.122H83.3094V170.776H91.8114V174H79.9034V155.8ZM100.521 155.8H107.177C109.118 155.8 110.643 156.268 111.753 157.204C112.879 158.123 113.443 159.492 113.443 161.312C113.443 162.577 113.174 163.617 112.637 164.432C112.099 165.229 111.337 165.871 110.349 166.356L114.457 174H110.739L107.229 167.24H107.099H103.849V174H100.521V155.8ZM106.293 164.458C108.737 164.458 109.959 163.47 109.959 161.494C109.959 160.541 109.681 159.821 109.127 159.336C108.572 158.833 107.671 158.582 106.423 158.582H103.849V164.458H106.293ZM116.796 155.8H128.444V159.024H120.202V162.898H126.598V166.122H120.202V170.776H128.704V174H116.796V155.8ZM131.573 155.8H138.047C142.363 155.8 144.521 157.759 144.521 161.676C144.521 163.704 143.975 165.212 142.883 166.2C141.791 167.188 140.205 167.682 138.125 167.682H134.901V174H131.573V155.8ZM137.735 164.9C138.879 164.9 139.729 164.64 140.283 164.12C140.855 163.6 141.141 162.803 141.141 161.728C141.141 160.653 140.855 159.865 140.283 159.362C139.711 158.842 138.836 158.582 137.657 158.582H134.901V164.9H137.735ZM147.062 155.8H153.718C155.659 155.8 157.184 156.268 158.294 157.204C159.42 158.123 159.984 159.492 159.984 161.312C159.984 162.577 159.715 163.617 159.178 164.432C158.64 165.229 157.878 165.871 156.89 166.356L160.998 174H157.28L153.77 167.24H153.64H150.39V174H147.062V155.8ZM152.834 164.458C155.278 164.458 156.5 163.47 156.5 161.494C156.5 160.541 156.222 159.821 155.668 159.336C155.113 158.833 154.212 158.582 152.964 158.582H150.39V164.458H152.834ZM163.337 155.8H174.985V159.024H166.743V162.898H173.139V166.122H166.743V170.776H175.245V174H163.337V155.8ZM183.392 174.364C182.37 174.364 181.269 174.225 180.09 173.948C178.929 173.671 178.019 173.367 177.36 173.038L177.75 169.502C180.038 170.611 182.049 171.166 183.782 171.166C184.701 171.166 185.42 170.993 185.94 170.646C186.46 170.282 186.72 169.753 186.72 169.06C186.72 168.54 186.573 168.115 186.278 167.786C186.001 167.439 185.594 167.153 185.056 166.928C184.519 166.685 183.661 166.356 182.482 165.94C181.373 165.559 180.454 165.16 179.726 164.744C178.998 164.311 178.418 163.765 177.984 163.106C177.568 162.43 177.36 161.607 177.36 160.636C177.36 159.076 177.932 157.819 179.076 156.866C180.22 155.913 181.858 155.436 183.99 155.436C184.996 155.436 185.992 155.549 186.98 155.774C187.986 155.999 188.904 156.277 189.736 156.606L189.398 160.012C188.324 159.544 187.336 159.197 186.434 158.972C185.55 158.729 184.666 158.608 183.782 158.608C182.794 158.608 182.04 158.773 181.52 159.102C181 159.431 180.74 159.908 180.74 160.532C180.74 161.017 180.879 161.416 181.156 161.728C181.434 162.04 181.806 162.3 182.274 162.508C182.76 162.716 183.47 162.967 184.406 163.262C186.504 163.921 188.029 164.683 188.982 165.55C189.953 166.399 190.438 167.569 190.438 169.06C190.438 170.481 189.944 171.721 188.956 172.778C187.968 173.835 186.114 174.364 183.392 174.364ZM193.196 155.8H204.844V159.024H196.602V162.898H202.998V166.122H196.602V170.776H205.104V174H193.196V155.8ZM207.974 155.8H211.25L219.024 167.552V155.8H222.352V174H219.622L211.302 161.52V174H207.974V155.8ZM229.892 159.024H224.744V155.8H238.368V159.024H233.22V174H229.892V159.024ZM248.82 169.684H242.19L240.682 174H237.458L243.932 155.8H247.078L253.552 174H250.328L248.82 169.684ZM247.78 166.772L245.518 160.272L243.23 166.772H247.78Z" fill="white"/>
</svg>
